<svg id="Capa_1" enable-background="new 0 0 509.301 509.301" height="512" viewBox="0 0 509.301 509.301" width="512" xmlns="http://www.w3.org/2000/svg"><g id="XMLID_13_"><path id="XMLID_12_" d="" fill="#fff1b3" stroke="#000" stroke-miterlimit="10" stroke-width="30"/><path id="XMLID_646_" d="m159.295 158.58-8.786-56.609-33.719-33.721c13.448-16.602 12.369-40.565-3.023-55.958-7.921-7.927-18.456-12.292-29.663-12.292-11.208 0-21.744 4.365-29.67 12.291-7.982 7.981-12.345 18.686-12.285 29.86-.085-.001-.169-.001-.254-.001-11.078 0-21.679 4.357-29.598 12.287-7.926 7.921-12.292 18.457-12.292 29.664 0 11.208 4.365 21.744 12.291 29.67 15.005 15.005 38.636 16.354 55.173 3.642l36.533 36.532z" fill="#dfd7d5"/><path id="XMLID_870_" d="m497.006 54.439c-7.922-7.932-18.522-12.289-29.601-12.289-.085 0-.169 0-.254.001.06-11.175-4.303-21.879-12.285-29.86-7.925-7.926-18.461-12.291-29.669-12.291-11.207 0-21.742 4.365-29.661 12.291-15.394 15.394-16.473 39.357-3.024 55.959l-33.329 33.33-1.045 47 47.815 4.71 35.879-35.878c16.537 12.711 40.168 11.363 55.173-3.642 7.926-7.926 12.291-18.462 12.291-29.67-.001-11.206-4.366-21.742-12.29-29.661z" fill="#c4b3af"/><path id="XMLID_91_" d="m497.005 395.531c-15.376-15.391-39.343-16.467-55.959-3.023l-58.485-58.484-42.766 17.557 26.702 64.859 25.387 25.388c-12.715 16.548-11.359 40.184 3.65 55.182 7.92 7.927 18.455 12.292 29.662 12.292 11.208 0 21.744-4.365 29.67-12.291 7.982-7.981 12.345-18.687 12.285-29.86.084 0 .167.001.251.001 11.079-.001 21.682-4.358 29.601-12.288 7.927-7.92 12.292-18.455 12.292-29.662 0-11.21-4.365-21.746-12.29-29.671z" fill="#c4b3af"/><path id="XMLID_92_" d="m143.479 415.764 28.816-70.531-45.061-11.705-58.98 58.98c-16.616-13.444-40.582-12.366-55.958 3.022-7.926 7.926-12.291 18.462-12.291 29.67 0 11.207 4.365 21.742 12.289 29.66 7.922 7.932 18.523 12.29 29.604 12.29.083 0 .168-.001.251-.001-.06 11.174 4.303 21.879 12.285 29.86 7.926 7.926 18.462 12.291 29.67 12.291 11.207 0 21.742-4.365 29.66-12.29 15.012-15 16.367-38.636 3.652-55.184z" fill="#dfd7d5"/><path id="XMLID_660_" d="m298.307 81.992h-86.323c-66.611 0-120.803 54.192-120.803 120.803v49.617c0 36.393 16.087 70.338 44.201 93.406v57.23c0 16.098 13.096 29.193 29.193 29.193h181.14c16.097 0 29.192-13.096 29.192-29.193v-57.23c28.115-23.068 44.202-57.014 44.202-93.406v-49.617c.001-66.61-54.191-120.803-120.802-120.803z" fill="#f4e3df"/><path id="XMLID_1936_" d="m298.307 81.992h-43.162v350.25h90.57c16.097 0 29.192-13.096 29.192-29.193v-57.23c28.115-23.068 44.202-57.014 44.202-93.406v-49.617c.001-66.611-54.191-120.804-120.802-120.804z" fill="#dfd7d5"/><path id="XMLID_724_" d="m277.632 340.868-22.487-11.686-22.486 11.685-13.834-26.619 36.32-18.875 36.321 18.874z" fill="#914d24"/><circle id="XMLID_768_" cx="190.302" cy="231.971" fill="#dfd7d5" r="38.149"/><path id="XMLID_769_" d="m190.302 285.12c-29.307 0-53.149-23.843-53.149-53.149s23.843-53.149 53.149-53.149 53.149 23.843 53.149 53.149-23.842 53.149-53.149 53.149zm0-76.299c-12.765 0-23.149 10.385-23.149 23.149s10.385 23.149 23.149 23.149 23.149-10.385 23.149-23.149-10.384-23.149-23.149-23.149z" fill="#914d24"/><circle id="XMLID_762_" cx="319.988" cy="231.971" fill="#c4b3af" r="38.149"/><path id="XMLID_763_" d="m319.988 285.12c-29.307 0-53.148-23.843-53.148-53.149s23.842-53.149 53.148-53.149 53.149 23.843 53.149 53.149-23.843 53.149-53.149 53.149zm0-76.299c-12.764 0-23.148 10.385-23.148 23.149s10.385 23.149 23.148 23.149c12.765 0 23.149-10.385 23.149-23.149s-10.385-23.149-23.149-23.149z" fill="#673416"/><path id="XMLID_1004_" d="m214.015 393.93v38.31h-30v-38.31c0-8.28 6.71-15 15-15 8.28 0 15 6.72 15 15z" fill="#914d24"/><path id="XMLID_1003_" d="m270.145 393.93v38.31h-30v-38.31c0-8.28 6.72-15 15-15s15 6.72 15 15z" fill="#914d24"/><g fill="#673416"><path id="XMLID_1002_" d="m326.275 393.93v38.31h-30v-38.31c0-8.28 6.72-15 15-15s15 6.72 15 15z"/><path id="XMLID_1938_" d="m255.145 378.93v53.31h15v-38.31c0-8.28-6.72-15-15-15z"/><path id="XMLID_65_" d="m255.145 295.373v33.809l22.487 11.686 13.834-26.621z"/></g></g></svg>